Coordinates
version=1
nRows=30
nColumns=38
inDegrees=no

Units are S.I. units (second, meters, Newtons, ...)
If the header above contains a line with 'inDegrees', this indicates whether rotational values are in degrees (yes) or radians (no).

endheader
time	pelvis_tilt	pelvis_list	pelvis_rotation	pelvis_tx	pelvis_ty	pelvis_tz	hip_flexion_r	hip_adduction_r	hip_rotation_r	knee_angle_r	ankle_angle_r	subtalar_angle_r	mtp_angle_r	hip_flexion_l	hip_adduction_l	hip_rotation_l	knee_angle_l	ankle_angle_l	subtalar_angle_l	mtp_angle_l	lumbar_extension	lumbar_bending	lumbar_rotation	arm_flex_r	arm_add_r	arm_rot_r	elbow_flex_r	pro_sup_r	wrist_flex_r	wrist_dev_r	arm_flex_l	arm_add_l	arm_rot_l	elbow_flex_l	pro_sup_l	wrist_flex_l	wrist_dev_l
1.19167	-0.201684	0.131796	0.0660628	1.00888	0.981163	-0.328409	-0.379721	-0.087112	-0.213669	-0.455757	-0.103295	0.1	-0.000124659	0.927593	0.161361	-0.203616	-0.589414	0.525641	0.1	-0.0014551	0.0710934	-0.170714	0.112393	-0.312765	-0.403625	0.179061	2.00983	1.96466	-0.00103888	0.000440825	-1.00817	-0.360547	-0.0688021	1.9558	2.21149	0.0018568	-0.00311435
1.2	-0.198348	0.116115	0.0594364	1.00927	0.980541	-0.327058	-0.371243	-0.0723135	-0.175172	-0.54073	-0.107644	0.1	-0.000124659	0.907904	0.144538	-0.223468	-0.52512	0.549976	0.1	-0.0014551	0.0679551	-0.15608	0.11942	-0.318049	-0.402125	0.186265	1.99372	1.9653	-0.00103888	0.000440825	-0.995291	-0.360441	-0.0715258	1.95433	2.21988	0.0018568	-0.00311435
1.20833	-0.192351	0.100837	0.0531821	1.00939	0.97961	-0.325752	-0.35812	-0.0585763	-0.141734	-0.639451	-0.108863	0.1	-0.000124659	0.885431	0.128552	-0.242196	-0.473708	0.569365	0.1	-0.0014551	0.0606054	-0.141602	0.122982	-0.32388	-0.399435	0.191309	1.97094	1.96444	-0.00103888	0.000440825	-0.978562	-0.358672	-0.0737274	1.94973	2.2267	0.0018568	-0.00311435
1.21667	-0.18424	0.0870327	0.0482049	1.00928	0.978333	-0.324649	-0.340894	-0.047115	-0.115992	-0.749585	-0.107932	0.1	-0.000124659	0.860692	0.115144	-0.258077	-0.434888	0.58163	0.1	-0.0014551	0.0496861	-0.12844	0.122566	-0.330842	-0.395636	0.193895	1.94243	1.9623	-0.00103888	0.000440825	-0.958657	-0.35551	-0.0754199	1.94242	2.23132	0.0018568	-0.00311435
1.225	-0.174721	0.0754387	0.0452027	1.00893	0.976633	-0.323864	-0.320102	-0.0388648	-0.0993803	-0.868354	-0.105127	0.1	-0.000124659	0.83443	0.105573	-0.269397	-0.408073	0.584558	0.1	-0.0014551	0.0360743	-0.117369	0.117941	-0.339454	-0.390908	0.193841	1.90923	1.95945	-0.00103888	0.000440825	-0.93626	-0.351347	-0.0765824	1.93289	2.2333	0.0018568	-0.00311435
1.23333	-0.164533	0.0664406	0.0446077	1.00835	0.97441	-0.323458	-0.296248	-0.0344621	-0.0921455	-0.992823	-0.100252	0.1	-0.000124659	0.807568	0.100478	-0.274962	-0.392663	0.57606	0.1	-0.0014551	0.0207088	-0.108765	0.109104	-0.350039	-0.385484	0.191122	1.87233	1.9567	-0.00103888	0.000440825	-0.912	-0.34664	-0.0771782	1.92169	2.23241	0.0018568	-0.00311435
1.24167	-0.154334	0.0601308	0.0465783	1.00756	0.971568	-0.323444	-0.269766	-0.0342979	-0.0935574	-1.12018	-0.0929047	0.1	-0.000124659	0.781149	0.0999017	-0.274393	-0.388291	0.554579	0.1	-0.0014551	0.00442006	-0.10268	0.0962123	-0.362632	-0.379591	0.185873	1.8325	1.95493	-0.00103888	0.000440825	-0.886398	-0.341849	-0.0771789	1.90936	2.22869	0.0018568	-0.00311435
1.25	-0.144637	0.056418	0.051037	1.00653	0.968044	-0.323795	-0.240951	-0.0385949	-0.102183	-1.24798	-0.0827031	0.1	-0.000124659	0.756241	0.103423	-0.268185	-0.394951	0.519808	0.1	-0.0014551	-0.0121924	-0.0989706	0.0794992	-0.376941	-0.373412	0.178373	1.79024	1.95481	-0.00103888	0.000440825	-0.859825	-0.33739	-0.0765882	1.89649	2.22245	0.0018568	-0.00311435
1.25833	-0.135775	0.0551491	0.0577436	1.00524	0.963807	-0.324464	-0.209882	-0.0474638	-0.11613	-1.37424	-0.069447	0.1	-0.000124659	0.733847	0.110367	-0.257484	-0.412957	0.473475	0.1	-0.0014551	-0.0287939	-0.0974352	0.0592119	-0.392376	-0.367057	0.169004	1.74568	1.95663	-0.00103888	0.000440825	-0.832485	-0.333598	-0.0754559	1.8836	2.2142	0.0018568	-0.00311435
1.26667	-0.127932	0.0561969	0.0663625	1.00363	0.958887	-0.32539	-0.176351	-0.06094	-0.133273	-1.49747	-0.0532168	0.1	-0.000124659	0.714764	0.119998	-0.243888	-0.442706	0.419818	0.1	-0.0014551	-0.0452774	-0.0979214	0.0355799	-0.408139	-0.360556	0.158194	1.69871	1.96021	-0.00103888	0.000440825	-0.80441	-0.330716	-0.0738794	1.87121	2.20461	0.0018568	-0.00311435
1.275	-0.121225	0.059502	0.0765127	1.00164	0.953412	-0.326501	-0.139811	-0.0789742	-0.151437	-1.61657	-0.0343766	0.1	-0.000124659	0.699437	0.131656	-0.229157	-0.484257	0.36536	0.1	-0.0014551	-0.0616513	-0.100377	0.00883082	-0.423359	-0.35388	0.14636	1.64897	1.96495	-0.00103888	0.000440825	-0.775494	-0.328882	-0.0719913	1.85979	2.19443	0.0018568	-0.00311435
1.28333	-0.115771	0.0650474	0.0877773	0.999221	0.947638	-0.327718	-0.0993689	-0.10137	-0.168526	-1.73068	-0.0134531	0.1	-0.000124659	0.687813	0.144872	-0.214664	-0.536764	0.317765	0.1	-0.0014551	-0.0778904	-0.104828	-0.020748	-0.437248	-0.346973	0.133848	1.5961	1.97017	-0.00103888	0.000440825	-0.745534	-0.328134	-0.0699331	1.84974	2.18444	0.0018568	-0.00311435
1.29167	-0.111724	0.072784	0.0996789	0.996355	0.941899	-0.32896	-0.053864	-0.127668	-0.182596	-1.83902	0.00903425	0.1	-0.000124659	0.679242	0.159308	-0.201222	-0.598065	0.284101	0.1	-0.0014551	-0.0938009	-0.111284	-0.0527084	-0.449255	-0.339814	0.120898	1.53987	1.97534	-0.00103888	0.000440825	-0.714306	-0.328409	-0.0678264	1.84138	2.17536	0.0018568	-0.00311435
1.3	-0.109305	0.082521	0.111621	0.993049	0.936481	-0.33014	-0.00206545	-0.157	-0.191919	-1.94073	0.0327006	0.1	-0.000124659	0.672463	0.174598	-0.189222	-0.664626	0.269146	0.1	-0.0014551	-0.108984	-0.119616	-0.0863476	-0.459195	-0.332474	0.107625	1.48049	1.9803	-0.00103888	0.000440825	-0.681647	-0.329544	-0.0657543	1.835	2.16783	0.0018568	-0.00311435
1.30833	-0.108699	0.0938253	0.122852	0.989355	0.931504	-0.331181	0.0570508	-0.18799	-0.195078	-2.03476	0.0573138	0.1	-0.000124659	0.665731	0.190165	-0.178886	-0.731936	0.274397	0.1	-0.0014551	-0.12287	-0.12944	-0.120665	-0.4673	-0.325165	0.0940398	1.41867	1.98533	-0.00103888	0.000440825	-0.64753	-0.331268	-0.0637636	1.83085	2.16233	0.0018568	-0.00311435
1.31667	-0.10995	0.10599	0.132482	0.985379	0.926968	-0.332025	0.12399	-0.218745	-0.191132	-2.11982	0.0827372	0.1	-0.000124659	0.657049	0.205132	-0.170352	-0.795204	0.298078	0.1	-0.0014551	-0.134848	-0.140065	-0.154403	-0.474197	-0.318257	0.0801031	1.35582	1.99099	-0.00103888	0.000440825	-0.612128	-0.333222	-0.0618901	1.82916	2.15921	0.0018568	-0.00311435
1.325	-0.112847	0.118073	0.139556	0.981276	0.922882	-0.332632	0.198491	-0.246983	-0.179779	-2.19443	0.108786	0.1	-0.000124659	0.644455	0.21835	-0.163735	-0.850136	0.336026	0.1	-0.0014551	-0.144403	-0.150516	-0.186176	-0.480797	-0.312249	0.0658004	1.2939	1.99797	-0.00103888	0.000440825	-0.575836	-0.334991	-0.0601901	1.8302	2.15858	0.0018568	-0.00311435
1.33333	-0.116937	0.128983	0.143174	0.977238	0.919336	-0.332965	0.279431	-0.270277	-0.161489	-2.25708	0.135105	0.1	-0.000124659	0.626299	0.228547	-0.159121	-0.893545	0.383014	0.1	-0.0014551	-0.151214	-0.159659	-0.214653	-0.488146	-0.307695	0.0512133	1.23525	2.00671	-0.00103888	0.000440825	-0.539256	-0.336158	-0.058755	1.83427	2.16031	0.0018568	-0.00311435
1.34167	-0.121614	0.137629	0.142648	0.973474	0.916474	-0.332995	0.364927	-0.286401	-0.137529	-2.30633	0.161184	0.1	-0.000124659	0.601448	0.234539	-0.156551	-0.923604	0.433904	0.1	-0.0014551	-0.155158	-0.166373	-0.23875	-0.497259	-0.305102	0.0365563	1.18227	2.01728	-0.00103888	0.000440825	-0.503143	-0.336377	-0.0576923	1.84161	2.16406	0.0018568	-0.00311435
1.35	-0.1263	0.143093	0.137635	0.970181	0.914432	-0.332717	0.452595	-0.293669	-0.109863	-2.34107	0.186462	0.1	-0.000124659	0.569378	0.235431	-0.156039	-0.93976	0.484348	0.1	-0.0014551	-0.15624	-0.169701	-0.257791	-0.509	-0.304838	0.0221611	1.13711	2.02922	-0.00103888	0.000440825	-0.468324	-0.335432	-0.0570758	1.85236	2.16934	0.0018568	-0.00311435
1.35833	-0.1306	0.144724	0.128223	0.967528	0.913294	-0.332154	0.539856	-0.291178	-0.0808874	-2.36058	0.210433	0.1	-0.000124659	0.530124	0.23078	-0.157557	-0.942408	0.53091	0.1	-0.0014551	-0.154519	-0.168977	-0.271587	-0.524002	-0.30706	0.00841101	1.10136	2.04163	-0.00103888	0.000440825	-0.435607	-0.333267	-0.0568893	1.86648	2.17561	0.0018568	-0.00311435
1.36667	-0.134338	0.142178	0.114936	0.965628	0.913094	-0.331342	0.624184	-0.278881	-0.053099	-2.36463	0.232692	0.1	-0.000124659	0.484115	0.220663	-0.161002	-0.932467	0.570805	0.1	-0.0014551	-0.150086	-0.163863	-0.280447	-0.542637	-0.311687	-0.00435477	1.0759	2.05326	-0.00103888	0.000440825	-0.405704	-0.329987	-0.0569922	1.88374	2.18235	0.0018568	-0.00311435
1.375	-0.137507	0.135401	0.0986429	0.96455	0.913841	-0.330315	0.703284	-0.257523	-0.0287606	-2.35347	0.252985	0.1	-0.000124659	0.431969	0.205634	-0.166214	-0.911055	0.601567	0.1	-0.0014551	-0.1431	-0.154313	-0.285099	-0.565025	-0.318417	-0.0159458	1.06087	2.06287	-0.00103888	0.000440825	-0.379173	-0.325819	-0.0571285	1.90368	2.18917	0.0018568	-0.00311435
1.38333	-0.14017	0.12458	0.0804101	0.964324	0.915535	-0.329095	0.775204	-0.228446	-0.00962764	-2.32777	0.271238	0.1	-0.000124659	0.374332	0.18655	-0.173109	-0.879314	0.620926	0.1	-0.0014551	-0.133852	-0.140493	-0.286546	-0.591061	-0.326788	-0.0263982	1.05577	2.06951	-0.00103888	0.000440825	-0.356401	-0.321059	-0.0569728	1.92573	2.19589	0.0018568	-0.00311435
1.39167	-0.142371	0.110043	0.0613173	0.964953	0.918155	-0.327705	0.83844	-0.193335	0.00324485	-2.28854	0.287523	0.1	-0.000124659	0.311832	0.164407	-0.181742	-0.838366	0.626812	0.1	-0.0014551	-0.122782	-0.122712	-0.285896	-0.620457	-0.336259	-0.0359834	1.05962	2.07275	-0.00103888	0.000440825	-0.337601	-0.316023	-0.0561915	1.94925	2.20253	0.0018568	-0.00311435
1.4	-0.144109	0.0922383	0.0423049	0.966408	0.921645	-0.326182	0.89205	-0.153952	0.00959406	-2.237	0.301992	0.1	-0.000124659	0.245139	0.140186	-0.19235	-0.789353	0.617479	0.1	-0.0014551	-0.110423	-0.101362	-0.284204	-0.652781	-0.346306	-0.0451394	1.07119	2.07275	-0.00103888	0.000440825	-0.322842	-0.311004	-0.0544992	1.97364	2.20926	0.0018568	-0.00311435
1.40833	-0.145391	0.0716968	0.0240652	0.968622	0.925915	-0.324564	0.93573	-0.111941	0.00992758	-2.17453	0.314836	0.1	-0.000124659	0.175078	0.114724	-0.205454	-0.733526	0.591708	0.1	-0.0014551	-0.0973059	-0.076927	-0.282366	-0.687488	-0.356503	-0.0543512	1.08915	2.0702	-0.00103888	0.000440825	-0.312079	-0.306262	-0.0516957	1.99841	2.21626	0.0018568	-0.00311435
1.41667	-0.14629	0.0490506	0.00701614	0.971488	0.930836	-0.322876	0.96983	-0.0687288	0.0054086	-2.10253	0.326255	0.1	-0.000124659	0.102749	0.0886983	-0.221746	-0.67235	0.548979	0.1	-0.0014551	-0.0838507	-0.0500293	-0.281069	-0.723943	-0.366571	-0.0640188	1.11222	2.06611	-0.00103888	0.000440825	-0.305179	-0.302024	-0.0476782	2.02324	2.22358	0.0018568	-0.00311435
1.425	-0.146998	0.0250685	-0.00865036	0.974874	0.936235	-0.321137	0.995267	-0.0255363	-0.00233299	-2.02233	0.336453	0.1	-0.000124659	0.0295875	0.062702	-0.241778	-0.607594	0.48964	0.1	-0.0014551	-0.0702914	-0.0214803	-0.280818	-0.761435	-0.376385	-0.0743561	1.13922	2.06159	-0.00103888	0.000440825	-0.301943	-0.298501	-0.0424344	2.04795	2.23104	0.0018568	-0.00311435
1.43333	-0.147834	0.000691675	-0.0228716	0.978626	0.941888	-0.31936	1.01337	0.0165306	-0.0114419	-1.93512	0.345667	0.1	-0.000124659	-0.0426428	0.0373541	-0.265533	-0.541424	0.415116	0.1	-0.0014551	-0.0566504	0.00768346	-0.281975	-0.799196	-0.385949	-0.0853492	1.16909	2.05764	-0.00103888	0.000440825	-0.302115	-0.295894	-0.0360229	2.0725	2.2382	0.0018568	-0.00311435
